<svg width="47" height="47" viewBox="0 0 47 47" fill="none" xmlns="http://www.w3.org/2000/svg">
<path opacity="0.8" fill-rule="evenodd" clip-rule="evenodd" d="M46.8885 25.8043L45.8932 25.7074C45.9638 24.9814 46 24.2451 46 23.5C46 22.7549 45.9638 22.0186 45.8932 21.2926L46.8885 21.1957C46.9622 21.9538 47 22.7225 47 23.5C47 24.2775 46.9622 25.0462 46.8885 25.8043ZM45.9939 16.676L45.0368 16.966C44.6059 15.5435 44.0378 14.1806 43.3478 12.8924L44.2293 12.4202C44.9501 13.7658 45.5436 15.1898 45.9939 16.676ZM41.6664 8.59153L40.8938 9.22635C39.958 8.08742 38.9126 7.04198 37.7736 6.10621L38.4085 5.33356C39.5977 6.31067 40.6893 7.40228 41.6664 8.59153ZM34.5798 2.77067L34.1076 3.65219C32.8194 2.96221 31.4565 2.3941 30.034 1.96315L30.324 1.00611C31.8102 1.45639 33.2342 2.04994 34.5798 2.77067ZM25.8043 0.111539L25.7074 1.10684C24.9814 1.03618 24.2451 1 23.5 1C22.7549 1 22.0186 1.03618 21.2926 1.10684L21.1957 0.111539C21.9538 0.0377574 22.7225 0 23.5 0C24.2775 0 25.0462 0.0377574 25.8043 0.111539ZM16.676 1.00611L16.966 1.96315C15.5435 2.3941 14.1806 2.96221 12.8924 3.65219L12.4202 2.77067C13.7658 2.04994 15.1898 1.45639 16.676 1.00611ZM8.59153 5.33356L9.22635 6.10621C8.08742 7.04198 7.04198 8.08743 6.10621 9.22636L5.33356 8.59153C6.31067 7.40228 7.40228 6.31067 8.59153 5.33356ZM2.77067 12.4202L3.65219 12.8924C2.96221 14.1806 2.3941 15.5435 1.96315 16.966L1.00611 16.676C1.45639 15.1898 2.04994 13.7658 2.77067 12.4202ZM0.111539 21.1957C0.0377574 21.9538 0 22.7225 0 23.5C0 24.2775 0.0377574 25.0462 0.111539 25.8043L1.10684 25.7074C1.03618 24.9814 1 24.2451 1 23.5C1 22.7549 1.03618 22.0186 1.10684 21.2926L0.111539 21.1957ZM1.00611 30.324L1.96315 30.034C2.3941 31.4565 2.96221 32.8194 3.65219 34.1076L2.77067 34.5798C2.04994 33.2342 1.45639 31.8102 1.00611 30.324ZM5.33356 38.4085L6.10621 37.7736C7.04198 38.9126 8.08743 39.958 9.22636 40.8938L8.59153 41.6664C7.40228 40.6893 6.31067 39.5977 5.33356 38.4085ZM12.4202 44.2293L12.8924 43.3478C14.1806 44.0378 15.5435 44.6059 16.966 45.0368L16.676 45.9939C15.1898 45.5436 13.7658 44.9501 12.4202 44.2293ZM21.1957 46.8885L21.2926 45.8932C22.0186 45.9638 22.7549 46 23.5 46C24.2451 46 24.9814 45.9638 25.7074 45.8932L25.8043 46.8885C25.0462 46.9622 24.2775 47 23.5 47C22.7225 47 21.9538 46.9622 21.1957 46.8885ZM30.324 45.9939C31.8102 45.5436 33.2342 44.9501 34.5798 44.2293L34.1076 43.3478C32.8194 44.0378 31.4565 44.6059 30.034 45.0368L30.324 45.9939ZM38.4085 41.6664L37.7736 40.8938C38.9126 39.958 39.958 38.9126 40.8938 37.7736L41.6664 38.4085C40.6893 39.5977 39.5977 40.6893 38.4085 41.6664ZM44.2293 34.5798L43.3478 34.1076C44.0378 32.8194 44.6059 31.4565 45.0368 30.034L45.9939 30.324C45.5436 31.8102 44.9501 33.2342 44.2293 34.5798Z" fill="#EF6C3D"/>
</svg>
